<?xml version="1.0" standalone="no"?>
<!DOCTYPE svg PUBLIC "-//W3C//DTD SVG 20010904//EN"
 "http://www.w3.org/TR/2001/REC-SVG-20010904/DTD/svg10.dtd">
<svg version="1.0" xmlns="http://www.w3.org/2000/svg"
 width="755.000000pt" height="284.000000pt" viewBox="0 0 755.000000 284.000000"
 preserveAspectRatio="xMidYMid meet">

<g transform="translate(0.000000,284.000000) scale(0.100000,-0.100000)"
fill="#000000" stroke="none">
<path d="M311 2669 c-80 -24 -184 -116 -223 -200 -49 -104 -50 -112 -46 -939
l3 -775 23 -58 c13 -32 38 -76 55 -99 37 -48 122 -110 187 -135 43 -17 207
-18 3335 -21 2479 -2 3307 0 3360 8 106 18 198 70 252 143 82 112 78 67 78
982 0 640 -3 818 -13 847 -26 73 -89 156 -147 194 -109 69 194 64 -3490 63
-2118 -1 -3352 -4 -3374 -10z m1037 -549 l34 -21 -5 -177 c-3 -97 -7 -183 -8
-189 -1 -8 -11 -10 -28 -6 -50 12 -91 33 -88 45 1 7 -9 14 -23 16 -43 6 -50
27 -50 153 0 130 8 151 72 182 43 22 56 21 96 -3z m382 -244 c95 -55 100 -73
31 -110 -28 -14 -60 -26 -71 -26 -11 0 -20 -6 -20 -13 0 -15 -65 -55 -120 -74
-19 -7 -42 -21 -51 -32 -9 -11 -29 -23 -44 -27 l-28 -7 6 78 c4 43 7 94 7 114
0 38 22 59 130 123 53 32 60 30 160 -26z m-627 -23 c80 -57 82 -61 90 -194 5
-84 4 -86 -18 -82 -35 7 -160 79 -158 92 2 6 -12 18 -30 27 -17 9 -51 30 -73
45 -23 16 -44 26 -47 23 -3 -3 -17 2 -30 12 -21 16 -23 23 -15 46 5 15 22 35
36 44 93 61 142 59 245 -13z m2711 -60 c3 -42 6 -119 6 -172 l1 -96 42 49
c116 135 118 136 186 136 l63 0 -61 -67 c-33 -37 -70 -86 -82 -108 l-22 -42
77 -111 77 -112 -53 0 c-52 0 -54 2 -101 56 -27 30 -52 67 -56 81 -9 35 -22
38 -54 13 -25 -20 -27 -28 -27 -91 l0 -69 -50 0 -50 0 0 305 0 305 49 0 48 0
7 -77z m-1188 -28 l1 -60 41 -3 c36 -3 42 -6 42 -25 0 -50 -11 -65 -52 -71
l-40 -7 4 -120 c3 -133 6 -139 71 -139 l37 0 0 -44 c0 -41 -2 -44 -31 -50 -78
-15 -133 -2 -174 44 -18 20 -20 36 -20 174 l0 151 -27 3 c-25 3 -28 8 -28 38
0 31 2 34 31 34 l32 0 -6 64 c-3 35 -3 67 1 70 3 4 31 6 62 4 l55 -3 1 -60z
m3092 3 l3 -57 42 -3 42 -3 3 -52 3 -53 -50 0 -51 0 0 -87 c0 -49 3 -105 6
-125 6 -35 9 -38 39 -38 56 0 65 -8 65 -55 l0 -43 -58 -7 c-64 -7 -97 2 -129
36 -36 39 -43 74 -43 204 l0 124 -27 3 c-24 3 -28 8 -31 41 -3 35 -2 37 27 37
l31 0 0 63 c0 35 3 67 7 71 4 4 32 6 63 4 l55 -3 3 -57z m-3370 -70 c45 -21
50 -33 29 -63 -12 -16 -23 -17 -79 -11 -35 3 -79 3 -96 0 -28 -6 -32 -11 -32
-38 0 -30 4 -33 85 -65 46 -19 98 -42 115 -52 28 -18 30 -22 29 -76 -2 -92 -8
-104 -62 -120 -26 -8 -45 -18 -42 -22 16 -27 -134 -16 -197 15 -30 14 -38 23
-38 44 0 14 6 34 13 43 11 15 16 15 67 -3 63 -22 133 -26 147 -7 6 6 13 23 16
37 6 24 4 25 -77 41 -100 20 -128 37 -157 95 -29 61 -20 107 31 155 64 61 156
71 248 27z m2137 13 c22 -10 51 -31 65 -45 25 -27 25 -29 25 -219 l0 -192 -52
-3 -53 -3 0 38 c-2 123 -18 291 -31 311 -16 25 -70 30 -114 10 -46 -21 -55
-53 -55 -208 l0 -140 -50 0 -50 0 0 225 0 225 45 0 c39 0 46 -3 60 -30 l16
-31 41 35 c35 30 53 38 103 44 6 1 28 -7 50 -17z m516 -22 c21 -10 46 -30 57
-44 16 -20 47 -127 55 -194 2 -16 3 -16 -204 -19 l-136 -2 5 -25 c2 -14 18
-36 34 -50 35 -30 89 -33 164 -10 64 19 61 20 78 -14 15 -27 14 -30 -7 -43
-86 -55 -201 -65 -272 -24 -24 15 -51 36 -60 49 -24 33 -57 146 -58 197 -1 92
68 175 168 201 43 11 134 0 176 -22z m426 11 c31 -11 57 -21 59 -23 2 -2 1
-20 -3 -40 -4 -29 -10 -37 -27 -37 -12 0 -26 4 -31 9 -6 5 -39 11 -75 13 l-65
3 -3 -36 -3 -36 88 -27 c114 -35 153 -68 153 -128 0 -38 -67 -128 -107 -145
-57 -23 -133 -18 -203 13 -63 28 -71 41 -43 77 16 23 17 23 67 5 51 -18 121
-23 150 -12 10 4 16 18 16 39 0 30 -4 34 -52 54 -29 11 -76 28 -105 36 l-52
15 -11 58 c-6 31 -14 66 -17 78 -3 15 5 29 29 49 69 59 138 69 235 35z m-2311
-18 c21 -16 44 -35 50 -43 24 -30 44 -115 44 -183 0 -86 -24 -133 -90 -177
-51 -34 -94 -43 -165 -36 -101 10 -154 55 -181 154 -24 88 -16 178 20 233 39
59 89 80 197 80 79 0 89 -2 125 -28z m485 6 c43 -24 48 -41 21 -75 -18 -24
-38 -27 -110 -17 -25 4 -55 1 -71 -6 -68 -28 -78 -176 -15 -216 22 -15 33 -15
101 -4 75 13 76 13 95 -9 27 -35 23 -46 -33 -82 -67 -43 -146 -51 -205 -21
-96 49 -141 127 -131 227 8 75 14 94 42 136 51 72 83 87 194 88 58 1 81 -4
112 -21z m-2332 -239 l31 -11 0 -209 c0 -115 -2 -209 -5 -209 -19 0 -165 83
-187 107 -34 35 -46 130 -29 215 11 51 15 57 42 63 16 4 29 11 29 15 0 12 50
39 71 40 9 0 30 -5 48 -11z m-437 -65 c4 -71 15 -86 101 -134 l37 -21 0 73 c0
77 9 104 32 96 11 -5 12 -24 7 -103 -4 -53 -10 -99 -13 -102 -8 -8 -152 56
-169 76 -26 30 -32 181 -7 181 4 0 10 -29 12 -66z"/>
<path d="M4828 1619 c-24 -9 -58 -68 -58 -99 0 -6 45 -10 110 -10 l110 0 0 29
c0 64 -89 108 -162 80z"/>
<path d="M2934 1601 c-12 -5 -30 -22 -41 -38 -44 -63 -35 -142 23 -192 38 -34
70 -39 112 -17 54 28 66 51 66 127 0 61 -3 72 -26 95 -28 29 -96 41 -134 25z"/>
</g>
</svg>
